<?xml version="1.0" encoding="UTF-8"?>
<svg id="uuid-71381062-7042-46c7-ac9f-cb9a87dc42ad" data-name="Layer 1" xmlns="http://www.w3.org/2000/svg" xmlns:xlink="http://www.w3.org/1999/xlink" viewBox="0 0 1956 1153">
  <defs>
    <style>
      .uuid-bc0f51ba-5ed8-4622-8e4d-218112b5ec0a {
        fill: #999;
      }

      .uuid-bc0f51ba-5ed8-4622-8e4d-218112b5ec0a, .uuid-6f269bfa-6ddb-4945-b315-1bbc8e679006, .uuid-e26bc2d6-97b6-469f-b67f-24c0b4081cbe {
        stroke-width: 0px;
      }

      .uuid-e26bc2d6-97b6-469f-b67f-24c0b4081cbe {
        fill: url(#uuid-cb6ec89c-8b6c-4b2c-aae5-fbe463efffe5);
      }
    </style>
    <radialGradient id="uuid-cb6ec89c-8b6c-4b2c-aae5-fbe463efffe5" cx="1715.82" cy="6362.87" fx="1715.82" fy="6362.87" r="1587.09" gradientTransform="translate(-683.83 -2679.65) scale(1 .69)" gradientUnits="userSpaceOnUse">
      <stop offset="0" stop-color="#ccc"/>
      <stop offset="1" stop-color="#fff"/>
    </radialGradient>
  </defs>
  <rect class="uuid-e26bc2d6-97b6-469f-b67f-24c0b4081cbe" width="1956" height="1153"/>
  <g>
    <path class="uuid-6f269bfa-6ddb-4945-b315-1bbc8e679006" d="m639.54,894.71v3.91c-1.69-1.9-3.38-3.32-5.09-4.26-3.14-1.77-6.36-2.66-9.67-2.66s-6.49.89-9.55,2.66c-3.4,1.99-6,4.69-7.82,8.11-1.54,2.93-2.31,6.02-2.31,9.29,0,5.92,2.27,10.81,6.82,14.67,3.97,3.35,8.26,5.03,12.88,5.03,3.72,0,7.37-1.11,10.96-3.33,1.13-.7,2.39-1.8,3.78-3.3v3.84c-4.63,3.63-9.48,5.45-14.54,5.45-3.46,0-6.82-.81-10.09-2.43-4.4-2.22-7.75-5.4-10.06-9.55-1.79-3.27-2.69-6.77-2.69-10.51s.93-7.32,2.79-10.7c2.07-3.78,5-6.75,8.78-8.91,3.5-1.99,7.21-2.98,11.12-2.98,2.78,0,5.35.46,7.72,1.38,2.37.92,4.7,2.35,6.98,4.29Z"/>
    <path class="uuid-6f269bfa-6ddb-4945-b315-1bbc8e679006" d="m735.06,912.72l14.32,20.66h-3.46l-14.1-20.66h-1.28v20.66h-2.85v-43.73h6.22c2.22,0,4.03.17,5.43.51,1.4.34,2.68.91,3.83,1.7,2.93,2.05,4.39,5.18,4.39,9.39,0,4.76-1.85,8.12-5.54,10.06-1.5.79-3.81,1.26-6.95,1.41Zm-4.52-2.59h4.2c3.01,0,5.34-.68,6.98-2.05,1.96-1.62,2.95-3.92,2.95-6.89,0-1.69-.35-3.21-1.04-4.58-.69-1.37-1.64-2.37-2.83-3.01-1.6-.88-3.82-1.31-6.66-1.31h-3.59v17.84Z"/>
    <path class="uuid-6f269bfa-6ddb-4945-b315-1bbc8e679006" d="m858,892.28h-18.1v15.83h17.65v2.63h-17.65v20.02h18.1v2.63h-20.95v-43.73h20.95v2.63Z"/>
    <path class="uuid-6f269bfa-6ddb-4945-b315-1bbc8e679006" d="m968.74,919h-18.65l-5.8,14.38h-3.17l18.39-45.04,18.2,45.04h-3.17l-5.8-14.38Zm-1.06-2.63l-8.2-20.7-8.3,20.7h16.5Z"/>
    <path class="uuid-6f269bfa-6ddb-4945-b315-1bbc8e679006" d="m1069.16,892.28v41.1h-2.85v-41.1h-11.24v-2.63h25.47v2.63h-11.37Z"/>
    <path class="uuid-6f269bfa-6ddb-4945-b315-1bbc8e679006" d="m1168.87,889.65v43.73h-2.85v-43.73h2.85Z"/>
    <path class="uuid-6f269bfa-6ddb-4945-b315-1bbc8e679006" d="m1257.54,889.65l12.78,36.91,12.59-36.91h3.04l-15.63,45.53-15.95-45.53h3.17Z"/>
    <path class="uuid-6f269bfa-6ddb-4945-b315-1bbc8e679006" d="m1392.43,892.28h-18.1v15.83h17.65v2.63h-17.65v20.02h18.1v2.63h-20.95v-43.73h20.95v2.63Z"/>
  </g>
  <path class="uuid-6f269bfa-6ddb-4945-b315-1bbc8e679006" d="m1040.18,786.16c-22.94-49.95-45.4-98.98-67.35-147.05-9.21-20.26-18.91-41.47-29.1-63.63-10.2-22.15-20.28-44.19-30.25-66.1-9.97-21.92-19.46-43.01-28.47-63.28-9.01-20.26-17.35-38.88-25.04-55.85-4.63-10.36-10.51-21.44-17.66-33.23-7.15-11.78-15.47-22.5-24.96-32.17-9.5-9.66-20.21-17.68-32.13-24.04-11.93-6.36-25.21-9.55-39.83-9.55h-115.61l.58,5.66c6.72,0,22.23,3.18,30,9.54,7.78,6.36,34.38,6.56,197.35,383.9,8.94,20.7,21.92,37.11,34.64,51.25,12.73,14.14,27.1,25.1,43.13,32.88,16.02,7.78,34.91,11.67,56.65,11.67h48.04Z"/>
  <path class="uuid-6f269bfa-6ddb-4945-b315-1bbc8e679006" d="m728.62,668.83c-6.5-8.1-13.82-15.18-21.94-21.22-8.14-6.04-15.78-11.46-21.91-18.14-30.94-33.71,1.64-88.31,52.13-75.66-71.3-22.67-152.32,58.57-152.32,144.57,0,112.84,154.01,104.33,154.01,2.04,0-12.95-3.48-23.48-9.96-31.59Z"/>
  <path class="uuid-bc0f51ba-5ed8-4622-8e4d-218112b5ec0a" d="m1364.4,285.79v5.71h35.97c6.45,0,12.33,2.03,17.64,6.07,5.3,4.05,7.95,10.12,7.95,18.2,0,1.91-.46,5.24-1.38,9.99l-67.09,289.82c-4.15-4.28-9.46-12.49-15.91-24.63-6.46-12.14-13.61-26.41-21.44-42.83-7.85-16.42-16.25-34.02-25.25-52.82-8.99-18.79-17.98-37.35-26.97-55.68-8.99-18.31-18.1-35.57-27.32-51.75-9.23-16.17-17.98-29.5-26.28-39.98-12-14.75-23.86-26.29-35.62-34.62-11.76-8.32-24.1-14.51-37-18.56-12.91-4.04-26.4-6.54-40.46-7.5-14.07-.95-29.4-1.43-46-1.43h-50.49v5.71c5.07.48,10.6,2.86,16.6,7.14,5.07,3.81,11.29,9.53,18.67,17.13,7.37,7.62,15.22,18.33,23.52,32.12,10.6,18.09,22.01,38.55,34.24,61.39,12.21,22.84,67.55,144.91,80.23,174.89,12.68,29.98,24.66,58.18,35.97,84.59,11.29,26.41,21.55,49.86,30.78,70.31,9.22,20.47,17.05,35.94,23.52,46.4h56.03l106.52-459.71c2.3-8.57,7.49-16.42,15.56-23.56,8.06-7.14,16.71-10.71,25.94-10.71h30.43v-5.71h-138.33Z"/>
  <path class="uuid-bc0f51ba-5ed8-4622-8e4d-218112b5ec0a" d="m1222.91,430.69c-1.97,0-3.9-.35-5.73-.98l-43.03,185.87c-4.15-4.28-9.46-12.49-15.91-24.63-6.46-12.14-13.61-26.41-21.44-42.83-7.85-16.42-16.25-34.02-25.25-52.82-8.99-18.79-17.98-37.35-26.98-55.68-8.99-18.31-18.1-35.57-27.32-51.75-9.23-16.17-17.98-29.5-26.28-39.98-12-14.75-23.86-26.29-35.62-34.62-11.76-8.32-24.1-14.51-37-18.56-12.91-4.04-26.4-6.54-40.46-7.5-14.07-.95-29.4-1.43-46-1.43h-50.49v5.71c5.07.48,10.6,2.86,16.6,7.14,5.07,3.81,11.29,9.53,18.67,17.13,7.37,7.62,15.22,18.33,23.52,32.12,10.6,18.09,22.01,38.55,34.24,61.39,12.21,22.84,67.55,144.91,80.23,174.89,12.68,29.98,24.66,58.18,35.97,84.59,11.29,26.41,21.55,49.86,30.78,70.31,9.22,20.47,17.05,35.94,23.52,46.4h56.02l82.21-354.79c-.08,0-.17,0-.25,0Z"/>
</svg>